# xmcd
#
# Track frame offsets:
#	150
#	16371
#	30921
#	46722
#	61185
#	80533
#	96710
#	111518
#	127065
#	148922
#	164507
#	182031
#	196528
#
# Disc length: 2838 seconds
#
# Revision: 2
# Processed by: cddbd v1.5PL3 Copyright (c) Steve Scherf et al.
# Submitted via: AudioConverter v4.0 Copyright (c) Dennis Rebentrost
#
DISCID=b10b140d
DTITLE=DJ Mendez - Latino For Life
DYEAR=1900
DGENRE=
TTITLE0=Latino For Life
TTITLE1=Fiesta (House Party)
TTITLE2=Razon Tongue
TTITLE3=Chiki-Chiki
TTITLE4=Tell Me Why
TTITLE5=Funk The Mendez
TTITLE6=Seis De La Ma_ana
TTITLE7=Estocolmo
TTITLE8=Madre Mia
TTITLE9=Take Off Your Clothes
TTITLE10=F*** You Mendez
TTITLE11=Gracias a ti
TTITLE12=Fiesta (House Party) MIX
EXTD=
EXTT0=
EXTT1=
EXTT2=
EXTT3=
EXTT4=
EXTT5=
EXTT6=
EXTT7=
EXTT8=
EXTT9=
EXTT10=
EXTT11=
EXTT12=
PLAYORDER=
